<svg width="55" height="55" viewBox="0 0 55 55" fill="none" xmlns="http://www.w3.org/2000/svg">
<path d="M46.3376 6.37622H8.46234L11.8043 44.2515L27.4 48.7074L42.9957 44.2515L46.3376 6.37622Z" fill="#0277BD"/>
<path d="M27.4 9.71826V45.2542L39.8766 41.6894L42.6615 9.71826H27.4Z" fill="#039BE5"/>
<path d="M37.5372 15.2881H27.4V19.744H32.8585L32.5243 24.1999H27.4V28.6558H32.3015L31.9673 33.6687L27.4 35.2283V39.907L36.2005 37.0107L36.9802 24.1999L37.5372 15.2881Z" fill="white"/>
<path d="M27.4 15.2881V19.744H17.4856L17.1514 15.2881H27.4ZM22.2757 24.1999L22.4985 28.6558H27.4V24.1999H22.2757ZM22.7213 30.8838H18.2654L18.5996 37.0107L27.4 39.907V35.2283L22.8327 33.6687L22.7213 30.8838Z" fill="#EEEEEE"/>
</svg>
