<svg width="32" height="47" viewBox="0 0 32 47" fill="none" xmlns="http://www.w3.org/2000/svg">
<g clip-path="url(#clip0_1_494)">
<path d="M15.7355 23.3936C15.7355 21.3254 16.5571 19.342 18.0194 17.8797C19.4818 16.4173 21.4652 15.5957 23.5333 15.5957C25.6015 15.5957 27.5849 16.4173 29.0472 17.8797C30.5096 19.342 31.3312 21.3254 31.3312 23.3936C31.3312 25.4617 30.5096 27.4451 29.0472 28.9075C27.5849 30.3698 25.6015 31.1914 23.5333 31.1914C21.4652 31.1914 19.4818 30.3698 18.0194 28.9075C16.5571 27.4451 15.7355 25.4617 15.7355 23.3936Z" fill="#1ABCFE"/>
<path d="M0.139786 38.9893C0.139786 36.9211 0.961343 34.9377 2.42373 33.4754C3.8861 32.013 5.86951 31.1914 7.93764 31.1914H15.7355V38.9893C15.7355 41.0574 14.9139 43.0408 13.4515 44.5032C11.9892 45.9655 10.0058 46.7871 7.93764 46.7871C5.86951 46.7871 3.8861 45.9655 2.42373 44.5032C0.961343 43.0408 0.139786 41.0574 0.139786 38.9893Z" fill="#0ACF83"/>
<path d="M15.7355 0V15.5957H23.5333C25.6015 15.5957 27.5849 14.7741 29.0472 13.3118C30.5096 11.8494 31.3312 9.866 31.3312 7.79785C31.3312 5.72973 30.5096 3.74632 29.0472 2.28394C27.5849 0.821557 25.6015 0 23.5333 0H15.7355Z" fill="#FF7262"/>
<path d="M0.139771 7.79785C0.139771 9.866 0.961327 11.8494 2.42371 13.3118C3.88609 14.7741 5.8695 15.5957 7.93762 15.5957H15.7355V0H7.93762C5.8695 0 3.88609 0.821557 2.42371 2.28394C0.961327 3.74632 0.139771 5.72973 0.139771 7.79785Z" fill="#F24E1E"/>
<path d="M0.139786 23.3936C0.139786 25.4617 0.961343 27.4451 2.42373 28.9075C3.8861 30.3698 5.86951 31.1914 7.93764 31.1914H15.7355V15.5957H7.93764C5.86951 15.5957 3.8861 16.4173 2.42373 17.8797C0.961343 19.342 0.139786 21.3254 0.139786 23.3936Z" fill="#A259FF"/>
</g>
<defs>
<clipPath id="clip0_1_494">
<rect width="31.1914" height="46.7871" fill="white" transform="translate(0.139771)"/>
</clipPath>
</defs>
</svg>
