<svg width="55" height="54" viewBox="0 0 55 54" fill="none" xmlns="http://www.w3.org/2000/svg">
<path d="M9.57635 5.56982H47.4516L42.9957 43.4451L28.514 47.901L12.9183 43.4451L9.57635 5.56982Z" fill="#E7A42B"/>
<path d="M43.6975 8.91187L39.9323 40.8942L28.514 44.4032V8.91187H43.6975Z" fill="#F2BF22"/>
<path d="M28.514 23.3935L29.628 25.6214L28.514 27.8494H18.2543L19.2012 13.3677H28.514L29.628 15.5956L28.514 17.8236H24.0915L23.7239 23.3935H28.514Z" fill="#FAF9F8"/>
<path d="M28.4027 36.2823L28.5141 36.2489L29.628 38.9893L28.5141 40.9053L28.4472 40.9276L19.1678 38.2763L18.5439 31.1914H23.0221L23.3341 34.8341L28.4027 36.2823Z" fill="#EBEBEB"/>
<path d="M38.6178 23.3936L36.8688 38.3431L28.514 40.9053V36.2489L32.7805 34.9344L33.6049 27.8495H28.514V23.3936H38.6178Z" fill="white"/>
<path d="M39.5646 20.0515H35.1199L34.8302 17.8236H28.514V13.3677H38.6846L38.874 14.7713L39.5646 20.0515Z" fill="white"/>
</svg>
