<svg width="54" height="55" viewBox="0 0 54 55" fill="none" xmlns="http://www.w3.org/2000/svg">
<path d="M6.68387 47.4794V7.37622H46.7871V47.4794H6.68387Z" fill="#FFD600"/>
<path d="M32.9047 37.3947C33.6756 38.6468 34.5133 39.8465 36.2879 39.8465C37.7784 39.8465 38.5604 39.1057 38.5604 38.0809C38.5604 36.8544 37.7516 36.4188 36.1119 35.7048L35.2129 35.3216C32.6184 34.2209 30.8929 32.8418 30.8929 29.9288C30.8929 27.2441 32.9482 25.2011 36.1598 25.2011C38.4467 25.2011 40.0899 25.9931 41.2751 28.0673L38.4746 29.8575C37.8586 28.7569 37.1924 28.3235 36.1598 28.3235C35.1059 28.3235 34.4387 28.9886 34.4387 29.8575C34.4387 30.9314 35.107 31.3658 36.6499 32.0309L37.5489 32.4141C40.6068 33.7163 42.3312 35.0464 42.3312 38.0363C42.3312 41.2579 39.7869 43.0236 36.3714 43.0236C33.0306 43.0236 31.1335 41.3471 30.0774 39.2717L32.9047 37.3947ZM19.9982 37.486C20.5618 38.4953 21.4185 39.2717 22.6505 39.2717C23.8291 39.2717 24.5075 38.8061 24.5075 36.9959V25.2H28.2204V37.5662C28.2204 41.317 26.0448 43.0236 22.8678 43.0236C19.997 43.0236 17.925 41.0786 17.0806 39.2717L19.9982 37.486Z" fill="#000001"/>
</svg>
