<svg width="190" height="48" viewBox="0 0 190 48" fill="none" xmlns="http://www.w3.org/2000/svg">
<rect y="21" width="186" height="6" fill="#E0E0E0"/>
<path d="M1.056 23.736C1.056 21.5173 1.536 19.544 2.496 17.816C3.456 16.0667 4.78933 14.712 6.496 13.752C8.224 12.7707 10.176 12.28 12.352 12.28C15.0187 12.28 17.3013 12.984 19.2 14.392C21.0987 15.8 22.368 17.72 23.008 20.152H16.992C16.544 19.2133 15.904 18.4987 15.072 18.008C14.2613 17.5173 13.3333 17.272 12.288 17.272C10.6027 17.272 9.23733 17.8587 8.192 19.032C7.14667 20.2053 6.624 21.7733 6.624 23.736C6.624 25.6987 7.14667 27.2667 8.192 28.44C9.23733 29.6133 10.6027 30.2 12.288 30.2C13.3333 30.2 14.2613 29.9547 15.072 29.464C15.904 28.9733 16.544 28.2587 16.992 27.32H23.008C22.368 29.752 21.0987 31.672 19.2 33.08C17.3013 34.4667 15.0187 35.16 12.352 35.16C10.176 35.16 8.224 34.68 6.496 33.72C4.78933 32.7387 3.456 31.384 2.496 29.656C1.536 27.928 1.056 25.9547 1.056 23.736ZM45.815 12.536V35H40.343V25.752H31.831V35H26.359V12.536H31.831V21.336H40.343V12.536H45.815ZM70.5305 31.032H62.1465L60.8025 35H55.0745L63.2025 12.536H69.5385L77.6665 35H71.8745L70.5305 31.032ZM69.1225 26.808L66.3385 18.584L63.5865 26.808H69.1225ZM95.0522 19.64C94.6469 18.8933 94.0603 18.328 93.2923 17.944C92.5456 17.5387 91.6603 17.336 90.6363 17.336C88.8656 17.336 87.4469 17.9227 86.3802 19.096C85.3136 20.248 84.7803 21.7947 84.7803 23.736C84.7803 25.8053 85.3349 27.4267 86.4443 28.6C87.5749 29.752 89.1216 30.328 91.0843 30.328C92.4283 30.328 93.5589 29.9867 94.4763 29.304C95.4149 28.6213 96.0976 27.64 96.5243 26.36H89.5803V22.328H101.484V27.416C101.079 28.7813 100.386 30.0507 99.4043 31.224C98.4443 32.3973 97.2176 33.3467 95.7243 34.072C94.2309 34.7973 92.5456 35.16 90.6683 35.16C88.4496 35.16 86.4656 34.68 84.7163 33.72C82.9883 32.7387 81.6336 31.384 80.6523 29.656C79.6923 27.928 79.2122 25.9547 79.2122 23.736C79.2122 21.5173 79.6923 19.544 80.6523 17.816C81.6336 16.0667 82.9883 14.712 84.7163 13.752C86.4443 12.7707 88.4176 12.28 90.6363 12.28C93.3243 12.28 95.5856 12.9307 97.4203 14.232C99.2763 15.5333 100.503 17.336 101.1 19.64H95.0522ZM109.987 16.92V21.464H117.315V25.688H109.987V30.616H118.275V35H104.515V12.536H118.275V16.92H109.987ZM141.924 35H136.452L127.3 21.144V35H121.828V12.536H127.3L136.452 26.456V12.536H141.924V35ZM144.962 23.736C144.962 21.5173 145.442 19.544 146.402 17.816C147.362 16.0667 148.696 14.712 150.402 13.752C152.13 12.7707 154.082 12.28 156.258 12.28C158.925 12.28 161.208 12.984 163.106 14.392C165.005 15.8 166.274 17.72 166.914 20.152H160.898C160.45 19.2133 159.81 18.4987 158.978 18.008C158.168 17.5173 157.24 17.272 156.194 17.272C154.509 17.272 153.144 17.8587 152.098 19.032C151.053 20.2053 150.53 21.7733 150.53 23.736C150.53 25.6987 151.053 27.2667 152.098 28.44C153.144 29.6133 154.509 30.2 156.194 30.2C157.24 30.2 158.168 29.9547 158.978 29.464C159.81 28.9733 160.45 28.2587 160.898 27.32H166.914C166.274 29.752 165.005 31.672 163.106 33.08C161.208 34.4667 158.925 35.16 156.258 35.16C154.082 35.16 152.13 34.68 150.402 33.72C148.696 32.7387 147.362 31.384 146.402 29.656C145.442 27.928 144.962 25.9547 144.962 23.736ZM189.529 12.536L181.753 27.576V35H176.281V27.576L168.505 12.536H174.713L179.065 21.944L183.385 12.536H189.529Z" fill="#171717"/>
</svg>
