<svg width="634" height="469" viewBox="0 0 634 469" fill="none" xmlns="http://www.w3.org/2000/svg">
<g clip-path="url(#clip0_1_339)">
<path d="M184.904 46.1489L191.601 56.6167L215.495 44.7712L227.78 41.0151C229.376 40.5271 230.816 39.6288 231.956 38.4099C233.096 37.191 233.897 35.6943 234.277 34.0692C234.657 32.4442 234.605 30.7478 234.124 29.1495C233.643 27.5512 232.752 26.107 231.538 24.9613V24.9613C229.74 23.2635 227.352 22.3308 224.879 22.36C222.406 22.3893 220.041 23.3782 218.283 25.118L207.974 35.3221L184.904 46.1489Z" fill="#A0616A"/>
<path d="M196.207 56.1288L187.277 42.1718L153.417 57.0683C150.986 58.138 148.872 59.8178 147.281 61.9449C145.689 64.0719 144.675 66.574 144.335 69.2086V69.2086C143.916 72.4571 144.543 75.7546 146.125 78.6229C147.706 81.4913 150.16 83.7814 153.13 85.1614L207.106 109.434C210.832 111.165 215.086 111.37 218.961 110.006C222.836 108.642 226.024 105.817 227.844 102.135V102.135C228.823 100.154 229.374 97.9896 229.461 95.782C229.548 93.5744 229.169 91.3732 228.349 89.3216C227.529 87.2701 226.287 85.4142 224.702 83.8747C223.117 82.3352 221.226 81.1466 219.152 80.3864L178.663 66.3703L196.207 56.1288Z" fill="#6C63FF"/>
<path d="M553.565 293.069C553.565 288.877 552.157 285.475 550.428 285.467H79.1747C77.4383 285.475 76.0382 288.877 76.0304 293.069V465.651C76.0305 466.041 75.8856 466.416 75.6241 466.704C75.3626 466.992 75.0031 467.173 74.6157 467.211C73.3508 467.332 72.086 467.445 70.8211 467.55C70.7898 467.55 70.7585 467.557 70.7272 467.557C70.0389 467.62 69.3506 467.667 68.6623 467.722H68.6545C68.3004 467.067 67.9505 466.407 67.6046 465.741C67.4876 465.516 67.4265 465.267 67.4265 465.014V283.206C67.4265 282.049 67.4734 280.883 67.5516 279.733C67.6633 278.155 67.8591 276.583 68.1382 275.025C69.4601 267.758 72.448 262.838 75.8427 262.823H553.753C554.248 262.826 554.738 262.93 555.192 263.128C555.859 263.423 556.462 263.845 556.967 264.371C557.653 265.085 558.24 265.887 558.712 266.757C560.385 269.706 561.582 274.102 562.005 279.217C562.005 279.264 562.012 279.311 562.012 279.358C562.122 280.625 562.177 281.916 562.169 283.206L562.278 299.968L562.349 309.964L562.56 341.33L562.638 352.468L562.982 466.822C562.982 467.237 562.817 467.635 562.524 467.928C562.231 468.222 561.833 468.387 561.418 468.387H555.129C554.714 468.387 554.316 468.222 554.023 467.928C553.73 467.635 553.565 467.237 553.565 466.822V293.069Z" fill="#E6E6E6"/>
<path d="M79.3745 378.543L69.2351 376.722L71.433 336.745L86.3984 339.433L79.3745 378.543Z" fill="#A0616A"/>
<path d="M77.8325 389.184L46.6518 383.585L46.7226 383.191C47.3007 379.972 49.1336 377.115 51.8182 375.248C54.5028 373.38 57.8192 372.656 61.0379 373.234L61.0387 373.234L67.51 369.935L77.3609 376.165L80.0827 376.654L77.8325 389.184Z" fill="#2F2E41"/>
<path d="M325.286 336.347H263.112C261.445 336.346 259.848 335.683 258.67 334.505C257.491 333.326 256.829 331.729 256.827 330.063V273.176C256.829 271.509 257.491 269.912 258.67 268.734C259.848 267.555 261.445 266.893 263.112 266.891H325.286C326.953 266.893 328.55 267.555 329.728 268.734C330.907 269.912 331.569 271.509 331.571 273.176V330.063C331.569 331.729 330.907 333.326 329.728 334.505C328.55 335.683 326.953 336.346 325.286 336.347V336.347Z" fill="#3F3D56"/>
<path d="M320.916 331.109H267.482C266.002 331.108 264.584 330.519 263.538 329.473C262.492 328.427 261.903 327.009 261.902 325.529V277.709C261.903 276.23 262.492 274.811 263.538 273.765C264.584 272.719 266.002 272.131 267.482 272.129H320.916C322.395 272.131 323.814 272.719 324.86 273.765C325.906 274.811 326.495 276.23 326.496 277.709V325.529C326.495 327.009 325.906 328.427 324.86 329.473C323.814 330.519 322.395 331.108 320.916 331.109Z" fill="white"/>
<path d="M315.585 286.051H272.812C272.442 286.051 272.087 285.904 271.826 285.642C271.564 285.381 271.417 285.026 271.417 284.656C271.417 284.286 271.564 283.931 271.826 283.67C272.087 283.408 272.442 283.261 272.812 283.261H315.585C315.955 283.261 316.31 283.408 316.572 283.67C316.833 283.931 316.98 284.286 316.98 284.656C316.98 285.026 316.833 285.381 316.572 285.642C316.31 285.904 315.955 286.051 315.585 286.051V286.051Z" fill="#6C63FF"/>
<path d="M315.585 291.563H272.812C272.442 291.563 272.087 291.416 271.826 291.155C271.564 290.893 271.417 290.538 271.417 290.168C271.417 289.798 271.564 289.443 271.826 289.182C272.087 288.92 272.442 288.773 272.812 288.773H315.585C315.955 288.773 316.31 288.92 316.572 289.182C316.833 289.443 316.98 289.798 316.98 290.168C316.98 290.538 316.833 290.893 316.572 291.155C316.31 291.416 315.955 291.563 315.585 291.563Z" fill="#6C63FF"/>
<path d="M291.353 297.075H272.812C272.442 297.075 272.087 296.928 271.826 296.667C271.564 296.405 271.417 296.05 271.417 295.68C271.417 295.31 271.564 294.956 271.826 294.694C272.087 294.432 272.442 294.285 272.812 294.285H291.353C291.723 294.285 292.078 294.432 292.34 294.694C292.601 294.956 292.748 295.31 292.748 295.68C292.748 296.05 292.601 296.405 292.34 296.667C292.078 296.928 291.723 297.075 291.353 297.075Z" fill="#6C63FF"/>
<path d="M315.585 308.62H272.812C272.442 308.62 272.087 308.473 271.826 308.212C271.564 307.95 271.417 307.595 271.417 307.225C271.417 306.855 271.564 306.501 271.826 306.239C272.087 305.977 272.442 305.83 272.812 305.83H315.585C315.955 305.83 316.31 305.977 316.572 306.239C316.833 306.501 316.98 306.855 316.98 307.225C316.98 307.595 316.833 307.95 316.572 308.212C316.31 308.473 315.955 308.62 315.585 308.62V308.62Z" fill="#E4E4E4"/>
<path d="M315.585 314.132H272.812C272.629 314.133 272.447 314.097 272.277 314.027C272.108 313.957 271.954 313.855 271.824 313.725C271.694 313.595 271.591 313.442 271.52 313.272C271.45 313.103 271.414 312.921 271.414 312.737C271.414 312.554 271.45 312.372 271.52 312.203C271.591 312.033 271.694 311.879 271.824 311.75C271.954 311.62 272.108 311.518 272.277 311.448C272.447 311.378 272.629 311.342 272.812 311.342H315.585C315.955 311.342 316.31 311.489 316.572 311.751C316.833 312.013 316.98 312.367 316.98 312.737C316.98 313.107 316.833 313.462 316.572 313.724C316.31 313.986 315.955 314.132 315.585 314.132V314.132Z" fill="#E4E4E4"/>
<path d="M291.353 319.645H272.812C272.442 319.645 272.087 319.498 271.826 319.236C271.564 318.975 271.417 318.62 271.417 318.25C271.417 317.88 271.564 317.525 271.826 317.263C272.087 317.002 272.442 316.855 272.812 316.855H291.353C291.723 316.855 292.078 317.002 292.34 317.263C292.601 317.525 292.748 317.88 292.748 318.25C292.748 318.62 292.601 318.975 292.34 319.236C292.078 319.498 291.723 319.645 291.353 319.645Z" fill="#E4E4E4"/>
<path d="M425.51 184.389H374.732C374.013 184.39 373.325 184.677 372.818 185.185C372.31 185.694 372.026 186.383 372.027 187.102V267.317H428.222V187.102C428.223 186.745 428.153 186.393 428.016 186.063C427.88 185.734 427.68 185.435 427.428 185.183C427.176 184.931 426.877 184.732 426.548 184.595C426.219 184.459 425.866 184.389 425.51 184.389V184.389ZM400.292 229.967C398.704 229.959 397.183 229.325 396.06 228.202C394.937 227.079 394.303 225.558 394.296 223.97V214.718C394.298 213.129 394.93 211.606 396.054 210.483C397.179 209.36 398.703 208.729 400.292 208.729C401.881 208.729 403.405 209.36 404.529 210.483C405.654 211.606 406.286 213.129 406.288 214.718V223.97C406.281 225.558 405.646 227.079 404.524 228.202C403.401 229.325 401.88 229.959 400.292 229.967Z" fill="#2F2E41"/>
<path d="M371.852 264.751V272.49C371.853 272.891 372.013 273.275 372.296 273.559C372.58 273.842 372.964 274.002 373.365 274.003H426.884C427.284 274.001 427.668 273.841 427.951 273.557C428.235 273.274 428.395 272.891 428.397 272.49V264.751H371.852Z" fill="#3F3D56"/>
<path d="M509.594 59.205H292.537C290.672 59.2079 288.884 59.9501 287.566 61.2687C286.247 62.5874 285.505 64.375 285.502 66.2399V212.711C285.504 214.577 286.245 216.365 287.564 217.684C288.883 219.003 290.671 219.745 292.537 219.746H509.594C511.46 219.745 513.248 219.003 514.567 217.684C515.886 216.365 516.628 214.577 516.629 212.711V66.2399C516.626 64.375 515.884 62.5874 514.566 61.2687C513.247 59.9501 511.459 59.2079 509.594 59.205V59.205Z" fill="#3F3D56"/>
<path d="M507.783 64.2861H294.35C293.352 64.2883 292.395 64.6865 291.69 65.3932C290.984 66.1 290.588 67.0577 290.588 68.0562V210.897C290.59 211.895 290.987 212.851 291.692 213.556C292.397 214.261 293.353 214.658 294.35 214.66H507.783C508.78 214.658 509.736 214.261 510.441 213.556C511.146 212.851 511.543 211.895 511.545 210.897V68.0562C511.545 67.0577 511.149 66.1 510.443 65.3932C509.738 64.6865 508.781 64.2883 507.783 64.2861V64.2861Z" fill="white"/>
<path d="M466.21 276.696H339.229C338.881 276.696 338.538 276.618 338.224 276.469C337.911 276.319 337.634 276.102 337.415 275.832C337.196 275.562 337.04 275.246 336.959 274.909C336.877 274.571 336.872 274.219 336.943 273.879L338.914 264.521C339.026 263.997 339.314 263.528 339.729 263.191C340.145 262.853 340.664 262.668 341.199 262.666H464.24C464.775 262.668 465.294 262.853 465.71 263.191C466.125 263.528 466.413 263.997 466.525 264.521L468.496 273.879C468.567 274.219 468.562 274.571 468.48 274.909C468.399 275.246 468.243 275.562 468.024 275.832C467.805 276.102 467.528 276.319 467.214 276.469C466.901 276.618 466.557 276.696 466.21 276.696H466.21Z" fill="#2F2E41"/>
<path d="M345.63 264.351H342.483C342.272 264.351 342.101 264.522 342.101 264.733V266.316C342.101 266.527 342.272 266.698 342.483 266.698H345.63C345.841 266.698 346.012 266.527 346.012 266.316V264.733C346.012 264.522 345.841 264.351 345.63 264.351Z" fill="#3F3D56"/>
<path d="M353.452 264.351H350.304C350.093 264.351 349.922 264.522 349.922 264.733V266.316C349.922 266.527 350.093 266.698 350.304 266.698H353.452C353.662 266.698 353.833 266.527 353.833 266.316V264.733C353.833 264.522 353.662 264.351 353.452 264.351Z" fill="#3F3D56"/>
<path d="M361.273 264.351H358.126C357.915 264.351 357.744 264.522 357.744 264.733V266.316C357.744 266.527 357.915 266.698 358.126 266.698H361.273C361.484 266.698 361.655 266.527 361.655 266.316V264.733C361.655 264.522 361.484 264.351 361.273 264.351Z" fill="#3F3D56"/>
<path d="M369.095 264.351H365.948C365.737 264.351 365.566 264.522 365.566 264.733V266.316C365.566 266.527 365.737 266.698 365.948 266.698H369.095C369.306 266.698 369.477 266.527 369.477 266.316V264.733C369.477 264.522 369.306 264.351 369.095 264.351Z" fill="#3F3D56"/>
<path d="M376.917 264.351H373.77C373.559 264.351 373.388 264.522 373.388 264.733V266.316C373.388 266.527 373.559 266.698 373.77 266.698H376.917C377.128 266.698 377.299 266.527 377.299 266.316V264.733C377.299 264.522 377.128 264.351 376.917 264.351Z" fill="#3F3D56"/>
<path d="M384.739 264.351H381.591C381.38 264.351 381.209 264.522 381.209 264.733V266.316C381.209 266.527 381.38 266.698 381.591 266.698H384.739C384.949 266.698 385.12 266.527 385.12 266.316V264.733C385.12 264.522 384.949 264.351 384.739 264.351Z" fill="#3F3D56"/>
<path d="M392.56 264.351H389.413C389.202 264.351 389.031 264.522 389.031 264.733V266.316C389.031 266.527 389.202 266.698 389.413 266.698H392.56C392.771 266.698 392.942 266.527 392.942 266.316V264.733C392.942 264.522 392.771 264.351 392.56 264.351Z" fill="#3F3D56"/>
<path d="M400.382 264.351H397.235C397.024 264.351 396.853 264.522 396.853 264.733V266.316C396.853 266.527 397.024 266.698 397.235 266.698H400.382C400.593 266.698 400.764 266.527 400.764 266.316V264.733C400.764 264.522 400.593 264.351 400.382 264.351Z" fill="#3F3D56"/>
<path d="M408.204 264.351H405.057C404.846 264.351 404.675 264.522 404.675 264.733V266.316C404.675 266.527 404.846 266.698 405.057 266.698H408.204C408.415 266.698 408.586 266.527 408.586 266.316V264.733C408.586 264.522 408.415 264.351 408.204 264.351Z" fill="#3F3D56"/>
<path d="M416.026 264.351H412.878C412.668 264.351 412.497 264.522 412.497 264.733V266.316C412.497 266.527 412.668 266.698 412.878 266.698H416.026C416.236 266.698 416.407 266.527 416.407 266.316V264.733C416.407 264.522 416.236 264.351 416.026 264.351Z" fill="#3F3D56"/>
<path d="M423.847 264.351H420.7C420.489 264.351 420.318 264.522 420.318 264.733V266.316C420.318 266.527 420.489 266.698 420.7 266.698H423.847C424.058 266.698 424.229 266.527 424.229 266.316V264.733C424.229 264.522 424.058 264.351 423.847 264.351Z" fill="#3F3D56"/>
<path d="M431.669 264.351H428.522C428.311 264.351 428.14 264.522 428.14 264.733V266.316C428.14 266.527 428.311 266.698 428.522 266.698H431.669C431.88 266.698 432.051 266.527 432.051 266.316V264.733C432.051 264.522 431.88 264.351 431.669 264.351Z" fill="#3F3D56"/>
<path d="M439.491 264.351H436.344C436.133 264.351 435.962 264.522 435.962 264.733V266.316C435.962 266.527 436.133 266.698 436.344 266.698H439.491C439.702 266.698 439.873 266.527 439.873 266.316V264.733C439.873 264.522 439.702 264.351 439.491 264.351Z" fill="#3F3D56"/>
<path d="M447.313 264.351H444.165C443.955 264.351 443.784 264.522 443.784 264.733V266.316C443.784 266.527 443.955 266.698 444.165 266.698H447.313C447.524 266.698 447.695 266.527 447.695 266.316V264.733C447.695 264.522 447.524 264.351 447.313 264.351Z" fill="#3F3D56"/>
<path d="M455.134 264.351H451.987C451.776 264.351 451.605 264.522 451.605 264.733V266.316C451.605 266.527 451.776 266.698 451.987 266.698H455.134C455.345 266.698 455.516 266.527 455.516 266.316V264.733C455.516 264.522 455.345 264.351 455.134 264.351Z" fill="#3F3D56"/>
<path d="M462.956 264.351H459.809C459.598 264.351 459.427 264.522 459.427 264.733V266.316C459.427 266.527 459.598 266.698 459.809 266.698H462.956C463.167 266.698 463.338 266.527 463.338 266.316V264.733C463.338 264.522 463.167 264.351 462.956 264.351Z" fill="#3F3D56"/>
<path d="M345.537 268.262H342.39C342.179 268.262 342.008 268.433 342.008 268.644V270.227C342.008 270.438 342.179 270.609 342.39 270.609H345.537C345.748 270.609 345.919 270.438 345.919 270.227V268.644C345.919 268.433 345.748 268.262 345.537 268.262Z" fill="#3F3D56"/>
<path d="M353.359 268.262H350.212C350.001 268.262 349.83 268.433 349.83 268.644V270.227C349.83 270.438 350.001 270.609 350.212 270.609H353.359C353.57 270.609 353.741 270.438 353.741 270.227V268.644C353.741 268.433 353.57 268.262 353.359 268.262Z" fill="#3F3D56"/>
<path d="M361.181 268.262H358.034C357.823 268.262 357.652 268.433 357.652 268.644V270.227C357.652 270.438 357.823 270.609 358.034 270.609H361.181C361.392 270.609 361.563 270.438 361.563 270.227V268.644C361.563 268.433 361.392 268.262 361.181 268.262Z" fill="#3F3D56"/>
<path d="M369.003 268.262H365.855C365.644 268.262 365.474 268.433 365.474 268.644V270.227C365.474 270.438 365.644 270.609 365.855 270.609H369.003C369.213 270.609 369.384 270.438 369.384 270.227V268.644C369.384 268.433 369.213 268.262 369.003 268.262Z" fill="#3F3D56"/>
<path d="M376.824 268.262H373.677C373.466 268.262 373.295 268.433 373.295 268.644V270.227C373.295 270.438 373.466 270.609 373.677 270.609H376.824C377.035 270.609 377.206 270.438 377.206 270.227V268.644C377.206 268.433 377.035 268.262 376.824 268.262Z" fill="#3F3D56"/>
<path d="M384.646 268.262H381.499C381.288 268.262 381.117 268.433 381.117 268.644V270.227C381.117 270.438 381.288 270.609 381.499 270.609H384.646C384.857 270.609 385.028 270.438 385.028 270.227V268.644C385.028 268.433 384.857 268.262 384.646 268.262Z" fill="#3F3D56"/>
<path d="M392.468 268.262H389.321C389.11 268.262 388.939 268.433 388.939 268.644V270.227C388.939 270.438 389.11 270.609 389.321 270.609H392.468C392.679 270.609 392.85 270.438 392.85 270.227V268.644C392.85 268.433 392.679 268.262 392.468 268.262Z" fill="#3F3D56"/>
<path d="M400.29 268.262H397.142C396.932 268.262 396.761 268.433 396.761 268.644V270.227C396.761 270.438 396.932 270.609 397.142 270.609H400.29C400.501 270.609 400.672 270.438 400.672 270.227V268.644C400.672 268.433 400.501 268.262 400.29 268.262Z" fill="#3F3D56"/>
<path d="M408.111 268.262H404.964C404.753 268.262 404.582 268.433 404.582 268.644V270.227C404.582 270.438 404.753 270.609 404.964 270.609H408.111C408.322 270.609 408.493 270.438 408.493 270.227V268.644C408.493 268.433 408.322 268.262 408.111 268.262Z" fill="#3F3D56"/>
<path d="M415.933 268.262H412.786C412.575 268.262 412.404 268.433 412.404 268.644V270.227C412.404 270.438 412.575 270.609 412.786 270.609H415.933C416.144 270.609 416.315 270.438 416.315 270.227V268.644C416.315 268.433 416.144 268.262 415.933 268.262Z" fill="#3F3D56"/>
<path d="M423.755 268.262H420.608C420.397 268.262 420.226 268.433 420.226 268.644V270.227C420.226 270.438 420.397 270.609 420.608 270.609H423.755C423.966 270.609 424.137 270.438 424.137 270.227V268.644C424.137 268.433 423.966 268.262 423.755 268.262Z" fill="#3F3D56"/>
<path d="M431.577 268.262H428.429C428.219 268.262 428.048 268.433 428.048 268.644V270.227C428.048 270.438 428.219 270.609 428.429 270.609H431.577C431.788 270.609 431.959 270.438 431.959 270.227V268.644C431.959 268.433 431.788 268.262 431.577 268.262Z" fill="#3F3D56"/>
<path d="M439.398 268.262H436.251C436.04 268.262 435.869 268.433 435.869 268.644V270.227C435.869 270.438 436.04 270.609 436.251 270.609H439.398C439.609 270.609 439.78 270.438 439.78 270.227V268.644C439.78 268.433 439.609 268.262 439.398 268.262Z" fill="#3F3D56"/>
<path d="M447.22 268.262H444.073C443.862 268.262 443.691 268.433 443.691 268.644V270.227C443.691 270.438 443.862 270.609 444.073 270.609H447.22C447.431 270.609 447.602 270.438 447.602 270.227V268.644C447.602 268.433 447.431 268.262 447.22 268.262Z" fill="#3F3D56"/>
<path d="M455.042 268.262H451.895C451.684 268.262 451.513 268.433 451.513 268.644V270.227C451.513 270.438 451.684 270.609 451.895 270.609H455.042C455.253 270.609 455.424 270.438 455.424 270.227V268.644C455.424 268.433 455.253 268.262 455.042 268.262Z" fill="#3F3D56"/>
<path d="M462.864 268.262H459.717C459.506 268.262 459.335 268.433 459.335 268.644V270.227C459.335 270.438 459.506 270.609 459.717 270.609H462.864C463.075 270.609 463.246 270.438 463.246 270.227V268.644C463.246 268.433 463.075 268.262 462.864 268.262Z" fill="#3F3D56"/>
<path d="M410.458 272.955H379.935C379.724 272.955 379.553 273.126 379.553 273.337V274.92C379.553 275.131 379.724 275.302 379.935 275.302H410.458C410.669 275.302 410.84 275.131 410.84 274.92V273.337C410.84 273.126 410.669 272.955 410.458 272.955Z" fill="#3F3D56"/>
<path d="M493.084 455.216L487.053 445.525L485.849 451.063C485.637 452.033 485.426 453.018 485.231 453.996C483.518 452.533 481.695 451.18 479.912 449.882C474.437 445.908 468.964 441.93 463.494 437.946L465.207 447.879C466.263 453.996 467.366 460.238 469.978 465.83C470.268 466.464 470.58 467.09 470.917 467.7H496.369C496.574 467.133 496.715 466.546 496.791 465.948C496.798 465.909 496.8 465.87 496.799 465.83C497.198 462.037 495.102 458.462 493.084 455.216Z" fill="#F0F0F0"/>
<path d="M148.926 455.216L142.895 445.525L141.691 451.063C141.48 452.033 141.268 453.018 141.073 453.996C139.36 452.533 137.537 451.18 135.754 449.882C130.279 445.908 124.806 441.93 119.336 437.946L121.049 447.879C122.105 453.996 123.208 460.238 125.82 465.83C126.11 466.464 126.423 467.09 126.759 467.7H152.211C152.416 467.133 152.558 466.546 152.634 465.948C152.64 465.909 152.643 465.87 152.641 465.83C153.04 462.037 150.944 458.462 148.926 455.216Z" fill="#F0F0F0"/>
<path d="M632.734 468.76L417.049 469C416.802 469 416.565 468.902 416.391 468.727C416.216 468.553 416.118 468.316 416.118 468.069C416.118 467.822 416.216 467.585 416.391 467.41C416.565 467.235 416.802 467.137 417.049 467.137L632.734 466.897C632.981 466.897 633.218 466.995 633.393 467.17C633.568 467.344 633.666 467.581 633.666 467.828C633.666 468.075 633.568 468.312 633.393 468.487C633.218 468.661 632.981 468.76 632.734 468.76Z" fill="#CACACA"/>
<path d="M497.054 83.9665H297.346C297.138 83.9619 296.941 83.8762 296.796 83.7278C296.65 83.5794 296.569 83.38 296.569 83.1723C296.569 82.9647 296.65 82.7653 296.796 82.6169C296.941 82.4685 297.138 82.3828 297.346 82.3782H497.054C497.261 82.3828 497.459 82.4685 497.604 82.6169C497.749 82.7653 497.831 82.9647 497.831 83.1723C497.831 83.38 497.749 83.5794 497.604 83.7278C497.459 83.8762 497.261 83.9619 497.054 83.9665V83.9665Z" fill="#CACACA"/>
<path d="M310.94 78.3232C313.511 78.3232 315.594 76.1929 315.594 73.5651C315.594 70.9374 313.511 68.8071 310.94 68.8071C308.37 68.8071 306.286 70.9374 306.286 73.5651C306.286 76.1929 308.37 78.3232 310.94 78.3232Z" fill="#3F3D56"/>
<path d="M327.019 78.3232C329.589 78.3232 331.673 76.1929 331.673 73.5651C331.673 70.9374 329.589 68.8071 327.019 68.8071C324.448 68.8071 322.365 70.9374 322.365 73.5651C322.365 76.1929 324.448 78.3232 327.019 78.3232Z" fill="#3F3D56"/>
<path d="M343.097 78.3232C345.668 78.3232 347.751 76.1929 347.751 73.5651C347.751 70.9374 345.668 68.8071 343.097 68.8071C340.527 68.8071 338.443 70.9374 338.443 73.5651C338.443 76.1929 340.527 78.3232 343.097 78.3232Z" fill="#3F3D56"/>
<path d="M487.373 69.9865H475.952C475.726 69.991 475.51 70.0841 475.352 70.2458C475.193 70.4074 475.104 70.6248 475.104 70.8513C475.104 71.0777 475.193 71.2951 475.352 71.4567C475.51 71.6184 475.726 71.7115 475.952 71.716H487.373C487.6 71.7115 487.815 71.6184 487.974 71.4567C488.132 71.2951 488.221 71.0777 488.221 70.8513C488.221 70.6248 488.132 70.4074 487.974 70.2458C487.815 70.0841 487.6 69.991 487.373 69.9865V69.9865Z" fill="#3F3D56"/>
<path d="M487.373 73.2327H475.952C475.726 73.2372 475.51 73.3303 475.352 73.492C475.193 73.6537 475.104 73.8711 475.104 74.0975C475.104 74.3239 475.193 74.5413 475.352 74.703C475.51 74.8646 475.726 74.9577 475.952 74.9623H487.373C487.6 74.9577 487.815 74.8646 487.974 74.703C488.132 74.5413 488.221 74.3239 488.221 74.0975C488.221 73.8711 488.132 73.6537 487.974 73.492C487.815 73.3303 487.6 73.2372 487.373 73.2327V73.2327Z" fill="#3F3D56"/>
<path d="M487.373 76.4746H475.952C475.726 76.4791 475.51 76.5722 475.352 76.7339C475.193 76.8956 475.104 77.113 475.104 77.3394C475.104 77.5658 475.193 77.7832 475.352 77.9449C475.51 78.1066 475.726 78.1997 475.952 78.2042H487.373C487.6 78.1997 487.815 78.1066 487.974 77.9449C488.132 77.7832 488.221 77.5658 488.221 77.3394C488.221 77.113 488.132 76.8956 487.974 76.7339C487.815 76.5722 487.6 76.4791 487.373 76.4746V76.4746Z" fill="#3F3D56"/>
<path d="M413.324 127.235H388.37C386.495 127.235 384.976 128.754 384.976 130.629C384.976 132.503 386.495 134.023 388.37 134.023H413.324C415.199 134.023 416.718 132.503 416.718 130.629C416.718 128.754 415.199 127.235 413.324 127.235Z" fill="#6C63FF"/>
<path d="M429.445 140.81H372.249C370.375 140.81 368.855 142.33 368.855 144.204C368.855 146.078 370.375 147.598 372.249 147.598H429.445C431.319 147.598 432.839 146.078 432.839 144.204C432.839 142.33 431.319 140.81 429.445 140.81Z" fill="#E6E6E6"/>
<path d="M429.445 154.386H372.249C370.375 154.386 368.855 155.905 368.855 157.779C368.855 159.654 370.375 161.173 372.249 161.173H429.445C431.319 161.173 432.839 159.654 432.839 157.779C432.839 155.905 431.319 154.386 429.445 154.386Z" fill="#E6E6E6"/>
<path d="M317.761 206.47C317.766 209.266 317.267 212.04 316.29 214.66H294.35C293.353 214.658 292.397 214.261 291.692 213.556C290.987 212.851 290.59 211.895 290.588 210.897V183.302C291.814 183.104 293.054 183.005 294.296 183.005C297.377 183.005 300.428 183.612 303.276 184.791C306.123 185.97 308.709 187.698 310.888 189.877C313.067 192.056 314.796 194.643 315.975 197.49C317.154 200.337 317.761 203.389 317.761 206.47Z" fill="#E6E6E6"/>
<path d="M274.472 228.288C274.144 237.791 253.932 263.431 243.302 267.107C241.496 267.733 240.44 268.077 240.44 268.077L236.74 266.958L191.937 253.403C184.092 258.018 160.689 260.365 141.486 261.538C126.203 262.469 113.571 262.656 113.571 262.656C109.062 296.948 100.176 329.75 85.1854 360.475L67.1954 357.347L84.1909 242.899C84.5579 240.427 85.643 238.118 87.3115 236.258C88.98 234.398 91.1582 233.07 93.5754 232.437L215.832 200.458C215.832 200.458 222.575 199.238 236.795 206.097C260.205 217.392 274.707 221.373 274.472 228.288Z" fill="#2F2E41"/>
<path d="M232.432 444.238L223.297 448.998L200.588 416.023L214.073 408.998L232.432 444.238Z" fill="#A0616A"/>
<path d="M237.721 453.601L209.626 468.239L209.441 467.884C207.93 464.983 207.633 461.602 208.615 458.483C209.597 455.364 211.778 452.762 214.678 451.251L214.679 451.251L217.782 444.683L229.386 443.588L231.838 442.31L237.721 453.601Z" fill="#2F2E41"/>
<path d="M251.111 226.449C255.211 235.029 249.135 267.107 241.407 275.279L239.356 276.674L238.662 277.035C234.026 292.716 184.278 338.58 184.278 338.58C201.082 359.987 211.555 386.306 218.237 415.567L203.309 422.464L148.614 340.812C147.182 338.674 146.43 336.151 146.458 333.577C146.486 331.003 147.293 328.498 148.772 326.392L171.085 294.608L207.444 224.181C233.424 223.379 248.124 220.209 251.111 226.449Z" fill="#2F2E41"/>
<path d="M273.215 231.626C194.69 219.684 187.536 208.945 186.768 209.136L186.086 209.305L197.463 190.076L201.636 185.146L198.426 182.852L199.7 173.323C200.693 169.462 201.497 164.916 201.069 164.307C200.184 163.327 198.213 161.545 198.194 161.528L197.941 161.299L200.898 154.398L204.859 99.2285L215.07 78.8716L236.146 66.3771L254.722 66.6019L271.048 81.7444C277.979 85.0785 283.616 90.6063 287.086 97.4706C290.555 104.335 291.663 112.152 290.238 119.71L281.945 163.511L278.894 186.087L283.872 191.064L280.775 194.161L278.934 204.708L280.82 216.652C282.294 227.505 275.739 228.152 275.254 228.288C275.225 228.296 273.801 232.024 273.741 232.024C273.59 232.024 273.578 231.681 273.215 231.626Z" fill="#6C63FF"/>
<path d="M269.093 275.173C269.989 274.297 270.683 273.235 271.125 272.062C271.567 270.889 271.746 269.634 271.651 268.384C271.555 267.134 271.186 265.92 270.57 264.828C269.955 263.737 269.107 262.793 268.088 262.064L276.701 232.837L261.558 237.461L255.7 264.507C254.589 266.301 254.174 268.441 254.535 270.52C254.896 272.599 256.008 274.474 257.659 275.789C259.309 277.104 261.385 277.767 263.493 277.654C265.6 277.54 267.592 276.658 269.093 275.173V275.173Z" fill="#A0616A"/>
<path d="M270.491 254.893L254.122 247.551L267.252 193.026L242.8 133.669C241.592 130.735 241.044 127.571 241.196 124.401C241.347 121.232 242.195 118.135 243.679 115.329C245.162 112.524 247.245 110.08 249.779 108.171C252.313 106.261 255.237 104.933 258.342 104.28V104.28C263.952 103.107 269.798 104.208 274.598 107.341C279.397 110.473 282.758 115.382 283.943 120.989L298.814 191.75L270.491 254.893Z" fill="#6C63FF"/>
<path d="M205.86 46.6128L211.843 21.729C212.049 20.8779 212.584 20.1431 213.33 19.6858C214.077 19.2286 214.975 19.0862 215.826 19.29L221.25 20.594C222.101 20.7997 222.836 21.3345 223.293 22.0813C223.75 22.828 223.892 23.7257 223.689 24.5773L217.706 49.4611C217.5 50.3122 216.965 51.047 216.218 51.5043C215.471 51.9615 214.574 52.1039 213.722 51.9001L208.299 50.5961C207.448 50.3905 206.713 49.8556 206.256 49.1088C205.799 48.3621 205.656 47.4644 205.86 46.6128V46.6128Z" fill="#3F3D56"/>
<path d="M216.156 20.7118C215.697 20.602 215.213 20.6788 214.811 20.9252C214.408 21.1716 214.12 21.5675 214.009 22.0262L208.026 46.91C207.916 47.3689 207.993 47.8526 208.239 48.255C208.486 48.6574 208.882 48.9457 209.34 49.0565L214.764 50.3605C215.222 50.4703 215.706 50.3936 216.109 50.1472C216.511 49.9008 216.799 49.5048 216.91 49.0461L222.893 24.1623C223.003 23.7034 222.926 23.2197 222.68 22.8173C222.434 22.4149 222.038 22.1266 221.579 22.0158L216.156 20.7118Z" fill="#6C63FF"/>
<path d="M241.248 62.3054C255.917 62.3054 267.809 50.4137 267.809 35.7446C267.809 21.0755 255.917 9.18384 241.248 9.18384C226.579 9.18384 214.687 21.0755 214.687 35.7446C214.687 50.4137 226.579 62.3054 241.248 62.3054Z" fill="#A0616A"/>
<path d="M253.499 53.5042L254.455 48.1244C255.043 44.5568 254.433 40.895 252.718 37.7114C251.004 34.5278 248.284 32.002 244.981 30.5289L244.161 30.1321L244.837 29.7708C245.052 29.6558 245.22 29.4693 245.312 29.2435C245.404 29.0176 245.413 28.7668 245.34 28.5345C245.266 28.3022 245.113 28.103 244.908 27.9716C244.702 27.8402 244.458 27.7847 244.216 27.8149L243.448 27.9104C242.925 27.9745 242.394 27.8858 241.92 27.6552C241.446 27.4245 241.049 27.0617 240.776 26.6105C240.504 26.1592 240.368 25.6388 240.384 25.1119C240.401 24.585 240.569 24.0742 240.87 23.6409C238.218 24.7396 235.389 25.3479 232.52 25.4363C228.368 25.405 224.761 23.3812 223.33 20.28C222.981 19.509 222.767 18.6842 222.696 17.841C218.31 19.5693 215.945 24.7496 215.921 24.8039L214.624 27.6973L215.179 24.5755C215.196 24.4804 216.894 15.0255 219.355 9.15956C222.001 2.8525 233.017 -0.471749 249.566 0.0541556C265.73 0.562109 269.316 18.9921 269.624 20.7753C274.216 25.1938 272.547 33.5594 271.135 38.1734C268.848 45.6457 264.334 53.081 261.847 53.4725C261.625 53.5143 261.394 53.4893 261.186 53.4006C260.978 53.3119 260.8 53.1635 260.676 52.9741C260.427 52.5782 260.097 52.2397 259.707 51.981C259.317 51.7224 258.877 51.5494 258.416 51.4735C256.406 51.1878 254.332 52.8354 254.311 52.8518L253.499 53.5042Z" fill="#2F2E41"/>
<path d="M216.617 468.76L0.931317 469C0.684782 468.999 0.448593 468.901 0.274519 468.726C0.100444 468.552 0.00268555 468.315 0.00268555 468.069C0.00268555 467.822 0.100444 467.586 0.274519 467.411C0.448593 467.237 0.684782 467.138 0.931317 467.137L216.617 466.897C216.864 466.897 217.1 466.995 217.275 467.17C217.45 467.344 217.548 467.581 217.548 467.828C217.548 468.075 217.45 468.312 217.275 468.487C217.1 468.661 216.864 468.76 216.617 468.76Z" fill="#CACACA"/>
</g>
<defs>
<clipPath id="clip0_1_339">
<rect width="633.666" height="469" fill="white"/>
</clipPath>
</defs>
</svg>
